# xmcd
#
# Track frame offsets: 
#        150
#        8958
#        20723
#        33804
#        47307
#        62724
#        75385
#        86185
#        95392
#        112147
#        123601
#        135611
#
# Disc length: 1967 seconds
#
# Revision: 0
# Processed by: cddbd v1.5.2PL0 Copyright (c) Steve Scherf et al.
# Submitted via: ExactAudioCopy v0.99pb5
#
DISCID=9607ad0c
DTITLE=Patsy Cline - Icon 2 [CD2 of 2)
DYEAR=2010
DGENRE=Country
TTITLE0=Anytime
TTITLE1=When I Get Thru With You (You'll Love Me Too)
TTITLE2=Imagine That
TTITLE3=So Wrong
TTITLE4=Why Can't He Be You
TTITLE5=When You Need A Laugh
TTITLE6=Leavin' On Your Mind
TTITLE7=Back In Baby's Arms
TTITLE8=Faded Love
TTITLE9=Sweet Dreams (Of You)
TTITLE10=Always
TTITLE11=He Called Me Baby
EXTD=
EXTT0=
EXTT1=
EXTT2=
EXTT3=
EXTT4=
EXTT5=
EXTT6=
EXTT7=
EXTT8=
EXTT9=
EXTT10=
EXTT11=
PLAYORDER=
